<svg xmlns="http://www.w3.org/2000/svg" width="48" height="48" viewBox="0 0 48 48"><title>5-Email</title><g id="_5-Email" data-name="5-Email"><path d="M43,12H42V3a2.916,2.916,0,0,0-3-3H8A2.916,2.916,0,0,0,5,3V13a1,1,0,0,0,2,0V3A.915.915,0,0,1,8,2H39a.915.915,0,0,1,1,1V13a1,1,0,0,0,1,1h2a2.987,2.987,0,0,1,2.21.974L24,28.806,1.546,14.163A1,1,0,0,0,0,15V43a5.006,5.006,0,0,0,5,5H43a5.006,5.006,0,0,0,5-5V17A5.006,5.006,0,0,0,43,12Zm3,31a3,3,0,0,1-3,3H5a3,3,0,0,1-3-3V16.846l15.579,10.16L6.293,38.293a1,1,0,1,0,1.414,1.414L19.291,28.123l4.163,2.714a1,1,0,0,0,1.092,0l4.163-2.714L40.293,39.707a1,1,0,0,0,1.414-1.414L30.421,27.006,46,16.849c0,.05,0,.1,0,.151Z"/><path d="M21,9a4,4,0,1,0-4,4A4,4,0,0,0,21,9ZM15,9a2,2,0,1,1,2,2A2,2,0,0,1,15,9Z"/><path d="M25,7h9a1,1,0,0,0,0-2H25a1,1,0,0,0,0,2Z"/><path d="M25,13h9a1,1,0,0,0,0-2H25a1,1,0,0,0,0,2Z"/><path d="M25,19h5a1,1,0,0,0,0-2H25a1,1,0,0,0,0,2Z"/></g></svg>